<svg height="454pt" viewBox="-81 0 454 454" width="454pt" xmlns="http://www.w3.org/2000/svg"><path d="m52 308c0-67.09375 49.566406-122.820312 114-132.507812-6.621094-.992188-13.304688-1.492188-20-1.492188-73.886719 0-134 60.113281-134 134s60.113281 134 134 134c6.695312 0 13.378906-.5 20-1.492188-64.433594-9.6875-114-65.414062-114-132.507812zm0 0" fill="#d4e1f4"/><g fill="#0635c9"><path d="m146 454c80.503906 0 146-65.496094 146-146 .03125-34.746094-12.386719-68.351562-35-94.730469v-102.269531c0-61.304688-49.695312-111-111-111s-111 49.695312-111 111v102.269531c-22.613281 26.378907-35.03125 59.984375-35 94.730469 0 80.503906 65.5 146 146 146zm0-12c-73.886719 0-134-60.113281-134-134s60.113281-134 134-134 134 60.113281 134 134-60.113281 134-134 134zm69-262.636719c-43.085938-23.152343-94.914062-23.152343-138 0v-68.363281c0-38.109375 30.890625-69 69-69s69 30.890625 69 69zm-69-167.363281c54.652344.0625 98.9375 44.347656 99 99v89.800781c-5.621094-5.195312-11.640625-9.945312-18-14.199219v-75.601562c0-44.734375-36.265625-81-81-81s-81 36.265625-81 81v75.589844c-6.359375 4.257812-12.378906 9.007812-18 14.199218v-89.789062c.0625-54.652344 44.347656-98.9375 99-99zm0 0"/><path d="m166.730469 408.738281c-6.824219 1.390625-13.769531 2.09375-20.730469 2.089844-3.3125 0-6 2.6875-6 6 0 3.316406 2.6875 6 6 6 7.769531.003906 15.519531-.78125 23.136719-2.332031 2.128906-.398438 3.875-1.914063 4.574219-3.96875.695312-2.050782.234374-4.316406-1.210938-5.929688-1.445312-1.613281-3.648438-2.324218-5.765625-1.859375zm0 0"/><path d="m186.976562 402.34375c-2.019531.816406-3.4375 2.667969-3.703124 4.832031-.265626 2.164063.664062 4.300781 2.429687 5.582031 1.761719 1.28125 4.082031 1.503907 6.058594.585938 41.945312-18.230469 69.074219-59.609375 69.066406-105.34375 0-3.3125-2.683594-6-6-6-3.3125 0-6 2.6875-6 6 .007813 40.957031-24.289063 78.015625-61.851563 94.34375zm0 0"/><path d="m152 199.171875c0-3.316406-2.6875-6-6-6-6.988281 0-13.964844.628906-20.839844 1.886719-2.148437.34375-3.945312 1.824218-4.691406 3.867187-.746094 2.046875-.324219 4.335938 1.097656 5.980469 1.421875 1.648438 3.628906 2.394531 5.757813 1.953125 6.164062-1.125 12.414062-1.691406 18.675781-1.6875 3.3125 0 6-2.6875 6-6zm0 0"/><path d="m101.300781 202.199219c-42.542969 17.933593-70.183593 59.632812-70.128906 105.800781 0 3.3125 2.683594 6 6 6 3.3125 0 6-2.6875 6-6-.050781-41.347656 24.703125-78.691406 62.804687-94.75 3-1.324219 4.382813-4.808594 3.105469-7.828125-1.277343-3.019531-4.742187-4.453125-7.78125-3.222656zm0 0"/></g><path d="m116 281.132812c3.3125 0 6-2.6875 6-6 0-6.664062 2.769531-13.03125 7.644531-17.570312 4.878907-4.539062 11.425781-6.851562 18.070313-6.375 10.515625.757812 19.304687 8.28125 21.671875 18.550781 2.371093 10.273438-2.242188 20.886719-11.363281 26.167969-11.246094 6.675781-18.105469 18.816406-18.023438 31.894531v13.019531c0 3.3125 2.6875 6 6 6s6-2.6875 6-6v-13.019531c-.089844-8.800781 4.496094-16.992187 12.046875-21.515625 15.109375-8.753906 21.757813-27.089844 15.769531-43.496094-5.988281-16.402343-22.886718-26.144531-40.082031-23.105468-17.199219 3.039062-29.734375 17.984375-29.734375 35.449218 0 3.3125 2.6875 6 6 6zm0 0" fill="#1ae5be"/><path d="m135 365.867188c0 6.078124 4.925781 11 11 11s11-4.921876 11-11c0-6.074219-4.925781-11-11-11-6.074219.007812-10.992188 4.929687-11 11zm12 0c0 .554687-.449219 1-1 1s-1-.445313-1-1c0-.550782.449219-1 1-1s1 .449218 1 1zm0 0" fill="#1ae5be"/></svg>