<svg id="Capa_1" enable-background="new 0 0 512 512" height="512" viewBox="0 0 512 512" width="512" xmlns="http://www.w3.org/2000/svg"><g><g><path d="m256 22c-135.31 0-245 109.69-245 245 0 104.85 65.871 194.3 158.481 229.267h172.965l.011.023c92.643-34.95 158.543-124.417 158.543-229.29 0-135.31-109.69-245-245-245z" fill="#fbb03b"/></g><g><circle cx="256" cy="312" fill="#f9c55d" r="180"/></g><g><path d="m428.55 154.69c-3.86 21.89-16.21 39.72-32.37 48.96-7.35 4.2-10.62 13.17-7.77 21.14 3.71 10.33 5.22 21.3 4.25 32.37-.67 7.59-2.48 14.75-5.3 21.34-20.15 55.77-41.94 147.56-44.92 217.82-26.88 10.13-56.01 15.68-86.44 15.68-30.46 0-59.61-5.56-86.51-15.71-2.99-70.25-24.76-162.02-44.92-217.79-2.81-6.59-4.62-13.75-5.29-21.34-.97-11.07.54-22.04 4.24-32.37 2.86-7.97-.41-16.94-7.76-21.14-16.16-9.24-28.51-27.07-32.37-48.96-2.88-16.32-.57-32.75 6.5-46.28 7.89-15.11 21.22-25.32 36.57-28.03 2.73-.48 5.52-.72 8.29-.72h.21c9.58.04 17.67-7.21 18.24-16.77.42-6.94 1.6-13.64 3.48-19.92 6.98-23.35 23.51-40.87 45.56-42.8 1.28-.11 2.58-.17 3.86-.17 11.86 0 22.95 4.69 32.18 12.79 10.19 8.93 25.19 8.93 35.37 0 9.24-8.1 20.33-12.79 32.18-12.79 1.29 0 2.59.06 3.87.17 22.17 1.94 38.67 19.36 45.59 42.79 1.86 6.27 3.02 12.97 3.43 19.92.56 9.57 8.67 16.82 18.26 16.78h.21c2.77 0 5.56.24 8.29.72 15.35 2.71 28.67 12.92 36.56 28.03 7.07 13.53 9.38 29.96 6.51 46.28z" fill="#d85f35"/></g><g><ellipse cx="208.528" cy="72.081" fill="#574f7f" rx="34.673" ry="51.541" transform="matrix(.996 -.087 .087 .996 -5.489 18.449)"/></g><g><ellipse cx="137.868" cy="145.08" fill="#574f7f" rx="34.673" ry="45.051" transform="matrix(.985 -.174 .174 .985 -23.098 26.145)"/></g><g><path d="m343.571 478.341c-77.297-21.833-87.565-117.315-88.146-160.709-.153-11.406-12.535-18.428-22.401-12.702-.096.056-.193.112-.289.168-11.305 6.566-25.374 14.737-44.271 14.737-8.571 0-17.48-1.736-26.476-5.159-15.891-6.047-28.235-17.079-35.659-31.236 19.642 56.13 40.247 144.613 43.153 212.828 26.904 10.157 56.058 15.732 86.518 15.732 30.433 0 59.562-5.565 86.447-15.706.249-5.848.626-11.841 1.124-17.953z" fill="#c64928"/></g><g><path d="m338.902 196.481c-44.63-26.708-43.927-59.741-82.934-59.741s-38.304 33.033-82.934 59.741c-44.63 26.707-43.224 83.285-3.514 98.396s54.118-20.031 86.448-20.031 46.738 35.142 86.448 20.031 41.116-71.688-3.514-98.396z" fill="#574f7f"/></g><g><path d="m240.711 248.82c-40.764.937-52.478-53.883-29.4-86.111-8.998 10.465-19.712 22.663-38.276 33.772-44.63 26.707-43.224 83.285-3.514 98.396s54.118-20.031 86.448-20.031 46.738 35.142 86.448 20.031c17.625-6.707 27.684-21.587 29.542-38.394-36.356 53.788-73.127-8.999-131.248-7.663z" fill="#493d71"/></g><g><ellipse cx="303.41" cy="72.081" fill="#574f7f" rx="51.541" ry="34.673" transform="matrix(.087 -.996 .996 .087 205.16 368.053)"/></g><g><ellipse cx="374.069" cy="145.08" fill="#574f7f" rx="45.051" ry="34.673" transform="matrix(.174 -.985 .985 .174 166.236 488.273)"/></g><g><path d="m230.122 106.323c-19.077 1.669-36.552-19.966-39.033-48.323-1.176-13.443 1.233-25.978 6.121-35.628-15.345 6.141-25.396 27.895-23.223 52.73 2.481 28.357 19.957 49.992 39.033 48.323 10.033-.878 18.506-8.032 23.928-18.738-2.176.87-4.457 1.429-6.826 1.636z" fill="#493d71"/></g><g><path d="m162.794 172.344c-18.858 3.325-37.649-13.842-41.969-38.345-2.05-11.624-.469-22.807 3.766-31.71-15.604 6.31-24.755 26.77-20.868 48.812 4.32 24.503 23.111 41.671 41.969 38.345 9.912-1.748 17.865-8.813 22.557-18.677-1.743.705-3.561 1.241-5.455 1.575z" fill="#493d71"/></g><g><path d="m316.02 106.323c-19.076-1.669-32.53-26.01-30.049-54.367.947-10.827 4.085-20.667 8.659-28.611-13.327 6.508-23.875 24.163-25.761 45.713-2.481 28.357 10.972 52.698 30.049 54.367 11.793 1.032 22.969-6.849 30.374-19.711-4.21 2.055-8.693 3.01-13.272 2.609z" fill="#493d71"/></g><g><path d="m383.348 172.344c-18.858-3.325-30.644-25.884-26.323-50.387 1.181-6.701 3.451-12.847 6.502-18.181-11.445 5.932-20.729 18.979-23.604 35.283-4.32 24.503 7.465 47.062 26.323 50.387 13.701 2.416 27.361-5.992 35.467-20.164-5.755 2.984-12.055 4.175-18.365 3.062z" fill="#493d71"/></g></g></svg>